<?xml version="1.0" encoding="UTF-8"?>
<svg id="Layer_1" data-name="Layer 1" xmlns="http://www.w3.org/2000/svg" version="1.1" viewBox="0 0 1024 1024">
  <defs>
    <style>
      .cls-1 {
        fill: #5276a7;
        stroke-width: 0px;
      }
    </style>
  </defs>
  <path class="cls-1" d="M962.2,8.7L183.2,396.1c16.9,5,33.9,9.4,51.2,13,57.4,12.1,116.4,17,175,14.6,43.7-1.8,87.3-7.9,129.9-17.9l-30.1-23.5,22.7-10.1,24.2,12.9,93-40.7-76.6-63.8,25.9-7.1,99.3,49.5,60-26.3c4.6-2,48.1-11.8,52.4-1.7,4.3,10.1-32.1,36.3-36.7,38.3l-60.1,26.3-32.1,106.9-22.8,14.3,6.3-99.9-94,41.2-6.7,24.7-22.8,9.9,3.5-36.9c-19.1,4.6-38.3,8.4-57.7,11.3-58.9,8.9-118.9,10.5-178.2,4.6-49.3-4.9-98.1-14.9-145.2-30l-122.8,61.1c-21.2,10.5-15.1,42.2,8.5,44.1l441,36c10.4.9,19,8.6,21,18.8l83.5,432.4c4.5,23.2,36.6,25.8,44.8,3.6L994.5,37.6c7.3-19.8-13.4-38.3-32.3-28.9Z"/>
</svg>